<svg height="512pt" viewBox="-67 0 512 512" width="512pt" xmlns="http://www.w3.org/2000/svg"><path d="m247.53125 147.960938v77.699218c0 8.289063-6.710938 15-15 15-8.28125 0-15-6.710937-15-15v-23.039062h-57.0625v23.039062c0 8.289063-6.71875 15-15 15-8.289062 0-15-6.710937-15-15v-77.699218c0-8.28125 6.710938-15 15-15 8.28125 0 15 6.71875 15 15v24.660156h57.0625v-24.660156c0-8.28125 6.71875-15 15-15 8.289062 0 15 6.71875 15 15zm0 0" fill="#006099"/><path d="m189 0c-104.210938 0-189 85.039062-189 189.558594 0 52.769531 27.320312 120.542968 81.199219 201.453125 40.109375 60.21875 80.492187 105.789062 84.972656 110.777343 5.796875 6.492188 14.128906 10.210938 22.828125 10.210938s17.03125-3.71875 22.828125-10.210938c4.480469-4.988281 44.863281-50.558593 84.972656-110.777343 53.878907-80.910157 81.199219-148.683594 81.199219-201.453125 0-104.519532-84.789062-189.558594-189-189.558594zm0 327.570312c-78.171875 0-141.761719-63.589843-141.761719-141.761718 0-78.160156 63.589844-141.757813 141.761719-141.757813s141.761719 63.597657 141.761719 141.757813c0 78.171875-63.589844 141.761718-141.761719 141.761718zm0 0" fill="#ff3f5c"/><path d="m378 189.558594c0 52.769531-27.320312 120.542968-81.199219 201.453125-40.109375 60.21875-80.492187 105.789062-84.972656 110.777343-5.796875 6.492188-14.128906 10.210938-22.828125 10.210938v-184.429688c78.171875 0 141.761719-63.589843 141.761719-141.761718 0-78.160156-63.589844-141.757813-141.761719-141.757813v-44.050781c104.210938 0 189 85.039062 189 189.558594zm0 0" fill="#ea0016"/><path d="m247.53125 147.960938v77.699218c0 8.289063-6.710938 15-15 15-8.28125 0-15-6.710937-15-15v-23.039062h-28.53125v-30h28.53125v-24.660156c0-8.28125 6.71875-15 15-15 8.289062 0 15 6.71875 15 15zm0 0" fill="#00213b"/></svg>