<svg height="512pt" viewBox="-92 0 512 512" width="512pt" xmlns="http://www.w3.org/2000/svg"><path d="m125.199219 361.402344h-99.804688c-14.003906 0-25.394531 11.394531-25.394531 25.398437v21.878907c0 4.140624 3.355469 7.496093 7.492188 7.496093 4.140624 0 7.492187-3.355469 7.492187-7.496093v-21.878907c0-5.742187 4.671875-10.410156 10.414063-10.410156h99.800781c5.742187 0 10.414062 4.667969 10.414062 10.410156v99.800781c0 5.742188-4.671875 10.414063-10.414062 10.414063h-99.800781c-5.742188 0-10.414063-4.671875-10.414063-10.414063v-43.90625c0-4.136718-3.351563-7.492187-7.492187-7.492187-4.136719 0-7.492188 3.355469-7.492188 7.492187v43.90625c0 14.003907 11.390625 25.398438 25.394531 25.398438h99.804688c14.003906 0 25.398437-11.394531 25.398437-25.398438v-99.800781c0-14.003906-11.394531-25.398437-25.398437-25.398437zm0 0"/><path d="m302.734375 361.402344h-99.804687c-14.003907 0-25.398438 11.394531-25.398438 25.398437v99.800781c0 14.003907 11.394531 25.398438 25.398438 25.398438h99.804687c14.003906 0 25.394531-11.394531 25.394531-25.398438v-99.800781c0-14.003906-11.390625-25.398437-25.394531-25.398437zm10.410156 125.199218c0 5.742188-4.671875 10.414063-10.414062 10.414063h-99.800781c-5.742188 0-10.414063-4.671875-10.414063-10.414063v-99.800781c0-5.742187 4.671875-10.410156 10.414063-10.410156h99.800781c5.742187 0 10.414062 4.667969 10.414062 10.410156zm0 0"/><path d="m58.199219 468.171875c1.988281 0 3.894531-.789063 5.296875-2.195313l47.953125-47.953124c2.925781-2.925782 2.925781-7.667969 0-10.59375-2.925781-2.925782-7.671875-2.925782-10.597657 0l-42.652343 42.652343-8.457031-8.457031c-2.925782-2.925781-7.667969-2.925781-10.597657 0-2.925781 2.929688-2.925781 7.671875 0 10.597656l13.753907 13.753906c1.40625 1.40625 3.3125 2.195313 5.300781 2.195313zm0 0"/><path d="m286.148438 403.382812c-2.925782-2.925781-7.667969-2.925781-10.59375 0l-22.722657 22.722657-22.722656-22.722657c-2.925781-2.925781-7.671875-2.925781-10.597656 0-2.925781 2.925782-2.925781 7.667969 0 10.597657l22.722656 22.71875-22.722656 22.722656c-2.925781 2.929687-2.925781 7.671875 0 10.597656 1.464843 1.460938 3.382812 2.195313 5.300781 2.195313s3.832031-.734375 5.296875-2.195313l22.722656-22.722656 22.722657 22.722656c1.460937 1.460938 3.378906 2.195313 5.296874 2.195313 1.917969 0 3.835938-.734375 5.300782-2.195313 2.925781-2.925781 2.925781-7.667969 0-10.597656l-22.722656-22.722656 22.722656-22.71875c2.921875-2.925781 2.921875-7.671875-.003906-10.597657zm0 0"/><path d="m131.847656 300.207031h-113.101562c-10.335938 0-18.746094 8.410157-18.746094 18.746094v8.792969c0 10.339844 8.410156 18.746094 18.746094 18.746094h113.101562c10.339844 0 18.75-8.410157 18.75-18.746094v-8.792969c0-10.335937-8.414062-18.746094-18.75-18.746094zm3.761719 27.539063c0 2.074218-1.6875 3.761718-3.761719 3.761718h-113.101562c-2.074219 0-3.761719-1.6875-3.761719-3.761718v-8.792969c0-2.074219 1.6875-3.761719 3.761719-3.761719h113.101562c2.074219 0 3.761719 1.6875 3.761719 3.761719zm0 0"/><path d="m131.847656 240.164062h-113.101562c-10.335938 0-18.746094 8.414063-18.746094 18.75v8.789063c0 10.339844 8.410156 18.75 18.746094 18.75h113.101562c10.339844 0 18.75-8.410156 18.75-18.75v-8.789063c0-10.335937-8.414062-18.75-18.75-18.75zm3.761719 27.539063c0 2.078125-1.6875 3.765625-3.761719 3.765625h-113.101562c-2.074219 0-3.761719-1.6875-3.761719-3.765625v-8.789063c0-2.074218 1.6875-3.761718 3.761719-3.761718h113.101562c2.074219 0 3.761719 1.6875 3.761719 3.761718zm0 0"/><path d="m131.847656 180.125h-113.101562c-10.335938 0-18.746094 8.410156-18.746094 18.746094v8.792968c0 10.339844 8.410156 18.746094 18.746094 18.746094h113.101562c10.339844 0 18.75-8.410156 18.75-18.746094v-8.792968c0-10.335938-8.414062-18.746094-18.75-18.746094zm3.761719 27.539062c0 2.074219-1.6875 3.761719-3.761719 3.761719h-113.101562c-2.074219 0-3.761719-1.6875-3.761719-3.761719v-8.792968c0-2.074219 1.6875-3.761719 3.761719-3.761719h113.101562c2.074219 0 3.761719 1.6875 3.761719 3.761719zm0 0"/><path d="m131.847656 60.039062h-12.503906c-4.140625 0-7.492188 3.355469-7.492188 7.496094 0 4.136719 3.351563 7.492188 7.492188 7.492188h12.503906c2.074219 0 3.761719 1.6875 3.761719 3.761718v8.792969c0 2.074219-1.6875 3.761719-3.761719 3.761719h-113.101562c-2.074219 0-3.761719-1.6875-3.761719-3.761719v-8.792969c0-2.074218 1.6875-3.761718 3.761719-3.761718h66.648437c4.136719 0 7.492188-3.355469 7.492188-7.492188 0-4.140625-3.355469-7.496094-7.492188-7.496094h-66.648437c-10.335938 0-18.746094 8.414063-18.746094 18.75v8.789063c0 10.339844 8.410156 18.75 18.746094 18.75h113.101562c10.339844 0 18.75-8.410156 18.75-18.75v-8.789063c0-10.335937-8.414062-18.75-18.75-18.75zm0 0"/><path d="m131.847656 120.082031h-113.101562c-10.335938 0-18.746094 8.410157-18.746094 18.75v8.789063c0 10.339844 8.410156 18.75 18.746094 18.75h113.101562c10.339844 0 18.75-8.410156 18.75-18.75v-8.789063c0-10.339843-8.414062-18.75-18.75-18.75zm3.761719 27.539063c0 2.074218-1.6875 3.765625-3.761719 3.765625h-113.101562c-2.074219 0-3.761719-1.691407-3.761719-3.765625v-8.789063c0-2.074219 1.6875-3.765625 3.761719-3.765625h113.101562c2.074219 0 3.761719 1.691406 3.761719 3.765625zm0 0"/><path d="m131.847656 0h-113.101562c-10.335938 0-18.746094 8.410156-18.746094 18.746094v8.792968c0 10.339844 8.410156 18.746094 18.746094 18.746094h113.101562c10.339844 0 18.75-8.410156 18.75-18.746094v-8.792968c0-10.335938-8.414062-18.746094-18.75-18.746094zm3.761719 27.539062c0 2.074219-1.6875 3.765626-3.761719 3.765626h-113.101562c-2.074219 0-3.761719-1.691407-3.761719-3.765626v-8.789062c0-2.074219 1.6875-3.765625 3.761719-3.765625h113.101562c2.074219 0 3.761719 1.691406 3.761719 3.765625zm0 0"/><path d="m309.382812 300.207031h-12.128906c-4.140625 0-7.496094 3.355469-7.496094 7.492188 0 4.140625 3.355469 7.492187 7.496094 7.492187h12.128906c2.074219 0 3.761719 1.691406 3.761719 3.765625v8.789063c0 2.074218-1.6875 3.765625-3.761719 3.765625h-113.101562c-2.074219 0-3.761719-1.691407-3.761719-3.765625v-8.789063c0-2.074219 1.6875-3.765625 3.761719-3.765625h70.25c4.140625 0 7.496094-3.351562 7.496094-7.492187 0-4.136719-3.355469-7.492188-7.496094-7.492188h-70.25c-10.339844 0-18.75 8.410157-18.75 18.746094v8.792969c0 10.339844 8.414062 18.746094 18.75 18.746094h113.101562c10.335938 0 18.746094-8.410157 18.746094-18.746094v-8.792969c0-10.335937-8.410156-18.746094-18.746094-18.746094zm0 0"/><path d="m309.382812 240.164062h-113.101562c-10.339844 0-18.75 8.414063-18.75 18.75v8.789063c0 10.339844 8.414062 18.75 18.75 18.75h113.101562c10.335938 0 18.746094-8.410156 18.746094-18.75v-8.789063c0-10.335937-8.410156-18.75-18.746094-18.75zm3.761719 27.539063c0 2.078125-1.691406 3.765625-3.765625 3.765625h-113.097656c-2.074219 0-3.761719-1.6875-3.761719-3.765625v-8.789063c0-2.074218 1.6875-3.761718 3.761719-3.761718h113.101562c2.074219 0 3.761719 1.6875 3.761719 3.761718zm0 0"/><path d="m309.382812 180.125h-113.101562c-10.339844 0-18.75 8.410156-18.75 18.746094v8.792968c0 10.339844 8.414062 18.746094 18.75 18.746094h113.101562c10.335938 0 18.746094-8.410156 18.746094-18.746094v-8.792968c0-10.335938-8.410156-18.746094-18.746094-18.746094zm3.761719 27.539062c0 2.074219-1.691406 3.761719-3.765625 3.761719h-113.097656c-2.074219 0-3.761719-1.6875-3.761719-3.761719v-8.792968c0-2.074219 1.6875-3.761719 3.761719-3.761719h113.101562c2.074219 0 3.761719 1.6875 3.761719 3.761719zm0 0"/></svg>